<svg xmlns="http://www.w3.org/2000/svg" version="1.1" xmlns:xlink="http://www.w3.org/1999/xlink" width="1000" height="1000"><style>
    #light-icon {
      display: inline;
    }
    #dark-icon {
      display: none;
    }

    @media (prefers-color-scheme: dark) {
      #light-icon {
        display: none;
      }
      #dark-icon {
        display: inline;
      }
    }
  </style><g id="light-icon"><svg xmlns="http://www.w3.org/2000/svg" version="1.1" xmlns:xlink="http://www.w3.org/1999/xlink" width="1000" height="1000"><g><g transform="matrix(2.5,0,0,2.5,0,0)"><svg xmlns="http://www.w3.org/2000/svg" version="1.1" xmlns:xlink="http://www.w3.org/1999/xlink" width="400" height="400"><svg xmlns="http://www.w3.org/2000/svg" viewBox="0 0 400 400" stroke="#f9f124">
    <path d="M240.17 23.46c-25.89 3.37-48.88 29.74-51.52 59.1l-.36 3.98-4.23 2.32a49.02 49.02 0 0 0-7.78 5.57l-3.56 3.23-2.7-2.58c-26.77-25.66-70.81.45-60.83 36.06.61 2.2 1.18 4.36 1.25 4.79.09.51-1.1 1.13-3.5 1.79-35.52 9.85-37.5 58.65-2.86 70.86 2.63.93 5.23 1.69 5.78 1.7 1.27 0 1.26.27-.26 4.34-1.9 5.1-1.87 18.34.06 23.67 4.29 11.9 12.47 19.7 24.91 23.75 4.56 1.48 4.47 1.23 2.55 7.39-1.65 5.26-1.8 14.43-.32 19.43 8.15 27.54 40.78 36.08 61.83 16.18l3.07-2.9 3.62 3.36c18.51 17.15 47.33 12.87 59.17-8.8l2.08-3.8 3.72-.74c25.04-5.03 41.48-29.15 36.32-53.3l-.8-3.72 2.17-2c17.1-15.78 17.9-48.38 1.59-64.45l-3.65-3.6.74-3.54c5.19-24.76-15.38-53.36-38.5-53.54-.93 0-1.62-.69-2.51-2.44-10.74-21.16-40.06-27.66-57.45-12.75-3.08 2.64-3.06 2.65-3.05-1.53.01-22.9 15.13-45.96 32.45-49.52 9.9-2.04 19.32.32 37.3 9.37 86.6 43.57 118.86 152.03 69.55 233.79l-2.8 4.64-2.72-2.93c-1.5-1.6-4.95-5.55-7.69-8.75-6.14-7.2-5.8-7.02-6.58-3.44-1.53 7.02-10.95 60-10.95 61.63 0 .77 1.54.44 9.29-2.06l17.86-5.71C368.06 319.65 376 317 376 316.56c0-.27-2.58-2.24-5.73-4.38-9.82-6.67-14.27-9.95-14.27-10.51 0-.3 1.97-3.94 4.38-8.08 40-68.81 30.86-157.55-22.27-216.33-18.16-20.09-38.33-34.88-62.25-45.64-16.96-7.64-25.21-9.52-35.69-8.16M100.86 51.25 70 58.05c-16.34 3.61-30.06 6.68-30.48 6.83-.46.16 2.82 3.23 8 7.48 4.82 3.97 9.23 7.66 9.8 8.2 1.17 1.1 1.98-.25-7.98 13.5C7.83 151.38 4.2 232.65 40.46 293.43c23.17 38.86 66.04 72.96 104.8 83.39 12.62 3.39 16.73 4.41 20.74 5.15 14.6 2.71 35.26 4.03 38.3 2.45 6.3-3.27 6.66-11.64.68-16.06-1.41-1.05-2.74-1.22-12.28-1.57-103.56-3.8-179.47-104.12-154.98-204.8A166.66 166.66 0 0 1 66.39 101c5.25-7.03 5.4-7.1 8.31-3.42 1.19 1.5 4.21 5.13 6.73 8.08l5.8 6.84 1.23 1.48.56-2.28c.8-3.25 4.44-18.5 5.86-24.56.67-2.83 2.86-11.8 4.88-19.95 4.45-17.98 4.36-16.68 1.1-15.94M200 101.13c0 .31-.77 1.82-1.7 3.34-3.88 6.3-4.75 10.73-4.64 23.68.1 12.3.03 12.5-4.14 9.63-11.66-8.02-11.44-25.31.43-33.48 3.68-2.54 10.05-4.55 10.05-3.17m37.02.26c19.55 5.2 21.36 32.72 2.7 41.1-9.04 4.05-7.8 15.39 1.69 15.48 10.97.1 25.14-15 27.22-29.04.77-5.18 1.01-5.27 6.67-2.57 13.25 6.32 19.39 22.23 14.1 36.5-2.7 7.23-2.42 8.84 2.03 12.15 14.6 10.88 18.4 27.85 9.4 41.93-2.47 3.87-2.98 3.84-8.26-.41-13-10.48-27.82-12.4-30.36-3.94-1.6 5.35 1.34 8.81 9.12 10.76 24.24 6.06 27.3 39.09 4.64 50.17-5.89 2.88-6.7 2.92-7.1.34-2.52-16.45-12.43-28.54-26.17-31.93-12.17-3-15.2 10.44-3.55 15.79 9.78 4.5 13.72 10.33 13.7 20.28-.06 23.51-30.61 30.14-41.01 8.9l-1.84-3.76-.16-36.8c-.14-32.7-.06-37.12.77-39.6 5.42-16.31 20.86-20.82 35.94-10.49 10.32 7.07 19.3-4.43 9.83-12.58-12.08-10.4-30.36-12.03-43.37-3.86-1.17.73-2.4 1.33-2.73 1.33-.43 0-.56-9.8-.44-32.14l.16-32.14 1.56-3.19c4.72-9.58 15.7-14.88 25.46-12.28m-84.4 1.33c17.43 8.59 14.06 34.96-4.9 38.37-21.52 3.87-32.68-25.67-14.07-37.22 5.04-3.13 13.85-3.67 18.97-1.15m-28.97 52.1c12.87 5.92 16.14 23.16 6.25 32.98-11.96 11.88-32.51 4.59-34.26-12.16-1.57-15.1 14.48-27.05 28-20.82m57.53.38c7.37 3.3 11.83 11.22 11.3 20.06-1.1 18.66-25.83 25.25-36.31 9.68-11.28-16.75 6.6-38 25.01-29.74m-28.49 53.01c15.12 7.22 15.12 29.2 0 36.46-15.1 7.24-32.44-7.24-27.85-23.28 3.53-12.37 16.6-18.55 27.85-13.18M193.14 226c0 20.93.19 20.2-4.24 16.84-9.14-6.91-10.74-21.05-3.36-29.68 2.09-2.43 6.18-5.73 7.12-5.73.26 0 .48 8.36.48 18.57m-13.96 33.8c18.63 6.3 17.79 33.28-1.21 38.8-12.47 3.63-25.59-6.33-25.59-19.43 0-13.59 13.99-23.69 26.8-19.36" fill-rule="evenodd"></path>
</svg></svg></g></g></svg></g><g id="dark-icon"><svg xmlns="http://www.w3.org/2000/svg" version="1.1" xmlns:xlink="http://www.w3.org/1999/xlink" width="1000" height="1000"><g><g transform="matrix(2.5,0,0,2.5,0,0)"><svg xmlns="http://www.w3.org/2000/svg" version="1.1" xmlns:xlink="http://www.w3.org/1999/xlink" width="400" height="400"><svg xmlns="http://www.w3.org/2000/svg" viewBox="0 0 400 400" fill="#fad25a">
    <path d="M240.17 23.46c-25.89 3.37-48.88 29.74-51.52 59.1l-.36 3.98-4.23 2.32a49.02 49.02 0 0 0-7.78 5.57l-3.56 3.23-2.7-2.58c-26.77-25.66-70.81.45-60.83 36.06.61 2.2 1.18 4.36 1.25 4.79.09.51-1.1 1.13-3.5 1.79-35.52 9.85-37.5 58.65-2.86 70.86 2.63.93 5.23 1.69 5.78 1.7 1.27 0 1.26.27-.26 4.34-1.9 5.1-1.87 18.34.06 23.67 4.29 11.9 12.47 19.7 24.91 23.75 4.56 1.48 4.47 1.23 2.55 7.39-1.65 5.26-1.8 14.43-.32 19.43 8.15 27.54 40.78 36.08 61.83 16.18l3.07-2.9 3.62 3.36c18.51 17.15 47.33 12.87 59.17-8.8l2.08-3.8 3.72-.74c25.04-5.03 41.48-29.15 36.32-53.3l-.8-3.72 2.17-2c17.1-15.78 17.9-48.38 1.59-64.45l-3.65-3.6.74-3.54c5.19-24.76-15.38-53.36-38.5-53.54-.93 0-1.62-.69-2.51-2.44-10.74-21.16-40.06-27.66-57.45-12.75-3.08 2.64-3.06 2.65-3.05-1.53.01-22.9 15.13-45.96 32.45-49.52 9.9-2.04 19.32.32 37.3 9.37 86.6 43.57 118.86 152.03 69.55 233.79l-2.8 4.64-2.72-2.93c-1.5-1.6-4.95-5.55-7.69-8.75-6.14-7.2-5.8-7.02-6.58-3.44-1.53 7.02-10.95 60-10.95 61.63 0 .77 1.54.44 9.29-2.06l17.86-5.71C368.06 319.65 376 317 376 316.56c0-.27-2.58-2.24-5.73-4.38-9.82-6.67-14.27-9.95-14.27-10.51 0-.3 1.97-3.94 4.38-8.08 40-68.81 30.86-157.55-22.27-216.33-18.16-20.09-38.33-34.88-62.25-45.64-16.96-7.64-25.21-9.52-35.69-8.16M100.86 51.25 70 58.05c-16.34 3.61-30.06 6.68-30.48 6.83-.46.16 2.82 3.23 8 7.48 4.82 3.97 9.23 7.66 9.8 8.2 1.17 1.1 1.98-.25-7.98 13.5C7.83 151.38 4.2 232.65 40.46 293.43c23.17 38.86 66.04 72.96 104.8 83.39 12.62 3.39 16.73 4.41 20.74 5.15 14.6 2.71 35.26 4.03 38.3 2.45 6.3-3.27 6.66-11.64.68-16.06-1.41-1.05-2.74-1.22-12.28-1.57-103.56-3.8-179.47-104.12-154.98-204.8A166.66 166.66 0 0 1 66.39 101c5.25-7.03 5.4-7.1 8.31-3.42 1.19 1.5 4.21 5.13 6.73 8.08l5.8 6.84 1.23 1.48.56-2.28c.8-3.25 4.44-18.5 5.86-24.56.67-2.83 2.86-11.8 4.88-19.95 4.45-17.98 4.36-16.68 1.1-15.94M200 101.13c0 .31-.77 1.82-1.7 3.34-3.88 6.3-4.75 10.73-4.64 23.68.1 12.3.03 12.5-4.14 9.63-11.66-8.02-11.44-25.31.43-33.48 3.68-2.54 10.05-4.55 10.05-3.17m37.02.26c19.55 5.2 21.36 32.72 2.7 41.1-9.04 4.05-7.8 15.39 1.69 15.48 10.97.1 25.14-15 27.22-29.04.77-5.18 1.01-5.27 6.67-2.57 13.25 6.32 19.39 22.23 14.1 36.5-2.7 7.23-2.42 8.84 2.03 12.15 14.6 10.88 18.4 27.85 9.4 41.93-2.47 3.87-2.98 3.84-8.26-.41-13-10.48-27.82-12.4-30.36-3.94-1.6 5.35 1.34 8.81 9.12 10.76 24.24 6.06 27.3 39.09 4.64 50.17-5.89 2.88-6.7 2.92-7.1.34-2.52-16.45-12.43-28.54-26.17-31.93-12.17-3-15.2 10.44-3.55 15.79 9.78 4.5 13.72 10.33 13.7 20.28-.06 23.51-30.61 30.14-41.01 8.9l-1.84-3.76-.16-36.8c-.14-32.7-.06-37.12.77-39.6 5.42-16.31 20.86-20.82 35.94-10.49 10.32 7.07 19.3-4.43 9.83-12.58-12.08-10.4-30.36-12.03-43.37-3.86-1.17.73-2.4 1.33-2.73 1.33-.43 0-.56-9.8-.44-32.14l.16-32.14 1.56-3.19c4.72-9.58 15.7-14.88 25.46-12.28m-84.4 1.33c17.43 8.59 14.06 34.96-4.9 38.37-21.52 3.87-32.68-25.67-14.07-37.22 5.04-3.13 13.85-3.67 18.97-1.15m-28.97 52.1c12.87 5.92 16.14 23.16 6.25 32.98-11.96 11.88-32.51 4.59-34.26-12.16-1.57-15.1 14.48-27.05 28-20.82m57.53.38c7.37 3.3 11.83 11.22 11.3 20.06-1.1 18.66-25.83 25.25-36.31 9.68-11.28-16.75 6.6-38 25.01-29.74m-28.49 53.01c15.12 7.22 15.12 29.2 0 36.46-15.1 7.24-32.44-7.24-27.85-23.28 3.53-12.37 16.6-18.55 27.85-13.18M193.14 226c0 20.93.19 20.2-4.24 16.84-9.14-6.91-10.74-21.05-3.36-29.68 2.09-2.43 6.18-5.73 7.12-5.73.26 0 .48 8.36.48 18.57m-13.96 33.8c18.63 6.3 17.79 33.28-1.21 38.8-12.47 3.63-25.59-6.33-25.59-19.43 0-13.59 13.99-23.69 26.8-19.36" fill-rule="evenodd"></path>
</svg></svg></g></g></svg></g></svg>