<svg xmlns="http://www.w3.org/2000/svg" version="1.1" xmlns:xlink="http://www.w3.org/1999/xlink" width="400" height="400"><svg id="SvgjsSvg1005" xmlns="http://www.w3.org/2000/svg" xmlns:xlink="http://www.w3.org/1999/xlink" width="400" height="400" viewBox="0, 0, 400,400"><g id="SvgjsG1004"><path id="SvgjsPath1003" d="M240.171 23.463 C 214.283 26.833,191.292 53.200,188.645 82.554 L 188.286 86.538 184.056 88.865 C 181.730 90.145,178.228 92.648,176.275 94.428 L 172.724 97.664 170.024 95.077 C 143.249 69.423,99.208 95.532,109.187 131.143 C 109.803 133.343,110.367 135.496,110.440 135.928 C 110.526 136.445,109.332 137.058,106.949 137.719 C 71.422 147.573,69.449 196.366,104.084 208.580 C 106.709 209.506,109.307 210.268,109.857 210.274 C 111.132 210.289,111.116 210.553,109.600 214.625 C 107.702 219.725,107.732 232.956,109.655 238.286 C 113.950 250.188,122.125 257.981,134.571 262.037 C 139.125 263.521,139.040 263.272,137.116 269.429 C 135.473 274.688,135.326 283.857,136.804 288.857 C 144.949 316.401,177.583 324.942,198.629 305.038 L 201.696 302.137 205.322 305.497 C 223.833 322.647,252.649 318.366,264.494 296.706 L 266.571 292.908 270.286 292.162 C 295.333 287.130,311.769 263.012,306.612 238.857 L 305.819 235.143 307.984 233.143 C 325.072 217.360,325.873 184.763,309.567 168.689 L 305.918 165.092 306.662 161.546 C 311.850 136.788,291.281 108.190,268.154 108.010 C 267.234 108.003,266.538 107.325,265.648 105.571 C 254.908 84.412,225.593 77.905,208.195 92.820 C 205.119 95.457,205.142 95.469,205.145 91.286 C 205.160 68.397,220.276 45.333,237.600 41.766 C 247.507 39.727,256.917 42.091,274.903 51.141 C 361.497 94.708,393.760 203.170,344.447 284.930 L 341.646 289.574 338.928 286.644 C 337.434 285.033,333.975 281.092,331.243 277.888 C 325.103 270.685,325.448 270.866,324.664 274.448 C 323.130 281.468,313.714 334.459,313.714 336.076 C 313.714 336.854,315.250 336.515,323.000 334.022 C 328.107 332.379,336.143 329.808,340.857 328.308 C 368.055 319.655,376.000 316.999,376.000 316.558 C 376.000 316.288,373.422 314.316,370.270 312.176 C 360.453 305.510,356.000 302.231,356.000 301.667 C 356.000 301.368,357.971 297.733,360.380 293.588 C 400.380 224.777,391.244 136.042,338.109 77.264 C 319.946 57.172,299.779 42.385,275.862 31.621 C 258.896 23.985,250.646 22.100,240.171 23.463 M100.857 51.250 C 100.229 51.394,86.343 54.458,70.000 58.059 C 53.657 61.660,39.939 64.729,39.515 64.878 C 39.061 65.039,42.339 68.106,47.515 72.364 C 52.339 76.332,56.755 80.021,57.329 80.563 C 58.495 81.663,59.295 80.311,49.337 94.064 C 7.829 151.382,4.210 232.647,40.459 293.429 C 63.634 332.288,106.496 366.390,145.267 376.817 C 157.876 380.208,161.992 381.232,165.996 381.974 C 180.598 384.680,201.259 386.002,204.294 384.424 C 210.597 381.146,210.957 372.783,204.984 368.358 C 203.569 367.309,202.240 367.139,192.699 366.789 C 89.142 362.981,13.234 262.672,37.717 161.989 C 43.150 139.648,52.684 119.370,66.393 101.000 C 71.636 93.973,71.793 93.908,74.701 97.578 C 75.887 99.074,78.914 102.712,81.429 105.662 C 83.943 108.612,86.553 111.690,87.228 112.503 L 88.456 113.980 89.017 111.705 C 89.820 108.447,93.460 93.201,94.882 87.143 C 95.545 84.314,97.740 75.335,99.758 67.188 C 104.212 49.213,104.123 50.505,100.857 51.250 M200.000 101.134 C 200.000 101.444,199.231 102.946,198.292 104.473 C 194.421 110.764,193.554 115.199,193.664 128.153 C 193.768 140.450,193.685 140.643,189.518 137.776 C 177.862 129.756,178.085 112.467,189.949 104.296 C 193.634 101.758,200.000 99.755,200.000 101.134 M237.021 101.389 C 256.575 106.594,258.377 134.111,239.712 142.491 C 230.684 146.544,231.926 157.879,241.409 157.971 C 252.375 158.077,266.547 142.961,268.633 128.933 C 269.404 123.751,269.641 123.660,275.298 126.360 C 288.546 132.683,294.690 148.593,289.392 162.857 C 286.707 170.086,286.977 171.698,291.429 175.015 C 306.025 185.890,309.833 202.864,300.832 216.935 C 298.356 220.806,297.850 220.781,292.571 216.526 C 279.577 206.052,264.748 204.128,262.214 212.586 C 260.610 217.939,263.546 221.405,271.331 223.350 C 295.567 229.406,298.623 262.435,275.973 273.519 C 270.082 276.401,269.262 276.441,268.868 273.861 C 266.350 257.414,256.438 245.317,242.699 241.927 C 230.534 238.925,227.509 252.365,239.146 257.716 C 248.927 262.213,252.867 268.048,252.844 278.000 C 252.787 301.514,222.235 308.145,211.838 286.899 L 210.000 283.143 209.841 246.339 C 209.699 213.631,209.785 209.225,210.609 206.743 C 216.028 190.429,231.474 185.921,246.553 196.250 C 256.866 203.316,265.849 191.825,256.384 183.674 C 244.302 173.269,226.018 171.638,213.011 179.805 C 211.839 180.541,210.608 181.143,210.275 181.143 C 209.854 181.143,209.720 171.348,209.835 149.000 L 210.000 116.857 211.565 113.673 C 216.277 104.086,227.253 98.789,237.021 101.389 M152.615 102.717 C 170.048 111.306,166.680 137.681,147.714 141.090 C 126.203 144.957,115.041 115.425,133.647 103.871 C 138.695 100.736,147.505 100.200,152.615 102.717 M123.649 154.815 C 136.520 160.737,139.787 177.979,129.899 187.801 C 117.936 199.683,97.388 192.390,95.645 175.642 C 94.072 160.531,110.125 148.592,123.649 154.815 M181.171 155.202 C 188.536 158.507,192.998 166.423,192.473 175.257 C 191.364 193.920,166.639 200.513,156.158 184.939 C 144.884 168.186,162.756 146.937,181.171 155.202 M152.680 208.213 C 167.803 215.432,167.800 237.412,152.675 244.668 C 137.574 251.912,120.245 237.425,124.828 221.387 C 128.363 209.016,141.423 202.838,152.680 208.213 M193.143 226.000 C 193.143 246.933,193.329 246.194,188.899 242.842 C 179.761 235.928,178.161 221.788,185.542 213.165 C 187.627 210.729,191.721 207.429,192.657 207.429 C 192.924 207.429,193.143 215.786,193.143 226.000 M179.184 259.808 C 197.815 266.099,196.968 293.082,177.966 298.606 C 165.495 302.231,152.381 292.270,152.381 279.171 C 152.381 265.583,166.366 255.480,179.184 259.808 " stroke="none" fill="#ffb5dc" fill-rule="evenodd"></path></g></svg><style>@media (prefers-color-scheme: light) { :root { filter: none; } }
@media (prefers-color-scheme: dark) { :root { filter: none; } }
</style></svg>